{
    "asset" : {
        "generator" : "Khronos glTF Blender I/O v1.3.48",
        "version" : "2.0"
    },
    "extensionsUsed" : [
        "KHR_materials_clearcoat"
    ],
    "scene" : 0,
    "scenes" : [
        {
            "name" : "Scene",
            "nodes" : [
                0,
                1,
                2,
                3,
                4,
                5,
                6,
                7
            ]
        }
    ],
    "nodes" : [
        {
            "name" : "Light",
            "rotation" : [
                0.16907575726509094,
                0.7558803558349609,
                -0.27217137813568115,
                0.570947527885437
            ],
            "translation" : [
                4.076245307922363,
                5.903861999511719,
                -1.0054539442062378
            ]
        },
        {
            "name" : "Camera",
            "rotation" : [
                0.483536034822464,
                0.33687159419059753,
                -0.20870360732078552,
                0.7804827094078064
            ],
            "translation" : [
                7.358891487121582,
                4.958309173583984,
                6.925790786743164
            ]
        },
        {
            "mesh" : 0,
            "name" : "Chandrabase",
            "rotation" : [
                -0.9999939203262329,
                0,
                0,
                -0.0034904845524579287
            ]
        },
        {
            "mesh" : 1,
            "name" : "Chandracover",
            "translation" : [
                0,
                -10.819999694824219,
                0
            ]
        },
        {
            "mesh" : 2,
            "name" : "Chandracylinder"
        },
        {
            "mesh" : 3,
            "name" : "Chandrapanel",
            "translation" : [
                15.079998016357422,
                -0.2199999988079071,
                2.0799999237060547
            ]
        },
        {
            "mesh" : 4,
            "name" : "Chandratop",
            "rotation" : [
                0,
                0.7071068286895752,
                0,
                0.7071068286895752
            ],
            "translation" : [
                0,
                103.16000366210938,
                0
            ]
        },
        {
            "mesh" : 5,
            "name" : "Chandrapanel.001",
            "rotation" : [
                0,
                0.9999985694885254,
                0.0017455372726544738,
                1.317843889570014e-10
            ],
            "translation" : [
                -15.079999923706055,
                -0.2199999988079071,
                2.0799999237060547
            ]
        }
    ],
    "materials" : [
        {
            "emissiveFactor" : [
                0,
                0,
                0
            ],
            "extensions" : {
                "KHR_materials_clearcoat" : {
                    "clearcoatFactor" : 1,
                    "clearcoatRoughnessFactor" : 0.15584155917167664
                }
            },
            "name" : "color",
            "pbrMetallicRoughness" : {
                "baseColorFactor" : [
                    0.05254342406988144,
                    0.0502300038933754,
                    0.05769001320004463,
                    1
                ],
                "metallicFactor" : 0.5,
                "roughnessFactor" : 1
            }
        },
        {
            "emissiveFactor" : [
                0,
                0,
                0
            ],
            "extensions" : {
                "KHR_materials_clearcoat" : {
                    "clearcoatFactor" : 0.9944751262664795,
                    "clearcoatRoughnessFactor" : 0.029999999329447746
                }
            },
            "name" : "wings",
            "pbrMetallicRoughness" : {
                "baseColorFactor" : [
                    0,
                    0.003070162609219551,
                    0.11069077253341675,
                    1
                ],
                "metallicFactor" : 1,
                "roughnessFactor" : 0.5
            }
        }
    ],
    "meshes" : [
        {
            "name" : "Chandrabase",
            "primitives" : [
                {
                    "attributes" : {
                        "POSITION" : 0,
                        "NORMAL" : 1
                    },
                    "indices" : 2,
                    "material" : 0
                }
            ]
        },
        {
            "name" : "Chandracover",
            "primitives" : [
                {
                    "attributes" : {
                        "POSITION" : 3,
                        "NORMAL" : 4
                    },
                    "indices" : 5,
                    "material" : 0
                }
            ]
        },
        {
            "name" : "Chandracylinder",
            "primitives" : [
                {
                    "attributes" : {
                        "POSITION" : 6,
                        "NORMAL" : 7
                    },
                    "indices" : 8,
                    "material" : 0
                }
            ]
        },
        {
            "name" : "Chandrapanel",
            "primitives" : [
                {
                    "attributes" : {
                        "POSITION" : 9,
                        "NORMAL" : 10
                    },
                    "indices" : 11,
                    "material" : 1
                }
            ]
        },
        {
            "name" : "Chandratop",
            "primitives" : [
                {
                    "attributes" : {
                        "POSITION" : 12,
                        "NORMAL" : 13
                    },
                    "indices" : 14,
                    "material" : 0
                }
            ]
        },
        {
            "name" : "Chandrapanel.001",
            "primitives" : [
                {
                    "attributes" : {
                        "POSITION" : 15,
                        "NORMAL" : 16
                    },
                    "indices" : 11,
                    "material" : 1
                }
            ]
        }
    ],
    "accessors" : [
        {
            "bufferView" : 0,
            "componentType" : 5126,
            "count" : 20065,
            "max" : [
                18.025920867919922,
                10.5,
                19.13702392578125
            ],
            "min" : [
                -18.025922775268555,
                -10.5,
                -19.137025833129883
            ],
            "type" : "VEC3"
        },
        {
            "bufferView" : 1,
            "componentType" : 5126,
            "count" : 20065,
            "type" : "VEC3"
        },
        {
            "bufferView" : 2,
            "componentType" : 5123,
            "count" : 27960,
            "type" : "SCALAR"
        },
        {
            "bufferView" : 3,
            "componentType" : 5126,
            "count" : 3530,
            "max" : [
                14,
                2.2114100456237793,
                11.883999824523926
            ],
            "min" : [
                -14,
                -0.009999999776482582,
                -14
            ],
            "type" : "VEC3"
        },
        {
            "bufferView" : 4,
            "componentType" : 5126,
            "count" : 3530,
            "type" : "VEC3"
        },
        {
            "bufferView" : 5,
            "componentType" : 5123,
            "count" : 4392,
            "type" : "SCALAR"
        },
        {
            "bufferView" : 6,
            "componentType" : 5126,
            "count" : 22115,
            "max" : [
                17,
                103,
                17
            ],
            "min" : [
                -17,
                0,
                -17
            ],
            "type" : "VEC3"
        },
        {
            "bufferView" : 7,
            "componentType" : 5126,
            "count" : 22115,
            "type" : "VEC3"
        },
        {
            "bufferView" : 8,
            "componentType" : 5123,
            "count" : 23580,
            "type" : "SCALAR"
        },
        {
            "bufferView" : 9,
            "componentType" : 5126,
            "count" : 751,
            "max" : [
                88.5,
                1.6875,
                11.25
            ],
            "min" : [
                -2.49799995252203e-16,
                0,
                -11.25
            ],
            "type" : "VEC3"
        },
        {
            "bufferView" : 10,
            "componentType" : 5126,
            "count" : 751,
            "type" : "VEC3"
        },
        {
            "bufferView" : 11,
            "componentType" : 5123,
            "count" : 1110,
            "type" : "SCALAR"
        },
        {
            "bufferView" : 12,
            "componentType" : 5126,
            "count" : 1037,
            "max" : [
                10.899999618530273,
                6,
                6.344480037689209
            ],
            "min" : [
                -12,
                0,
                -6.449999809265137
            ],
            "type" : "VEC3"
        },
        {
            "bufferView" : 13,
            "componentType" : 5126,
            "count" : 1037,
            "type" : "VEC3"
        },
        {
            "bufferView" : 14,
            "componentType" : 5123,
            "count" : 1362,
            "type" : "SCALAR"
        },
        {
            "bufferView" : 15,
            "componentType" : 5126,
            "count" : 751,
            "max" : [
                88.5,
                1.6875,
                11.25
            ],
            "min" : [
                -2.49799995252203e-16,
                0,
                -11.25
            ],
            "type" : "VEC3"
        },
        {
            "bufferView" : 16,
            "componentType" : 5126,
            "count" : 751,
            "type" : "VEC3"
        }
    ],
    "bufferViews" : [
        {
            "buffer" : 0,
            "byteLength" : 240780,
            "byteOffset" : 0
        },
        {
            "buffer" : 0,
            "byteLength" : 240780,
            "byteOffset" : 240780
        },
        {
            "buffer" : 0,
            "byteLength" : 55920,
            "byteOffset" : 481560
        },
        {
            "buffer" : 0,
            "byteLength" : 42360,
            "byteOffset" : 537480
        },
        {
            "buffer" : 0,
            "byteLength" : 42360,
            "byteOffset" : 579840
        },
        {
            "buffer" : 0,
            "byteLength" : 8784,
            "byteOffset" : 622200
        },
        {
            "buffer" : 0,
            "byteLength" : 265380,
            "byteOffset" : 630984
        },
        {
            "buffer" : 0,
            "byteLength" : 265380,
            "byteOffset" : 896364
        },
        {
            "buffer" : 0,
            "byteLength" : 47160,
            "byteOffset" : 1161744
        },
        {
            "buffer" : 0,
            "byteLength" : 9012,
            "byteOffset" : 1208904
        },
        {
            "buffer" : 0,
            "byteLength" : 9012,
            "byteOffset" : 1217916
        },
        {
            "buffer" : 0,
            "byteLength" : 2220,
            "byteOffset" : 1226928
        },
        {
            "buffer" : 0,
            "byteLength" : 12444,
            "byteOffset" : 1229148
        },
        {
            "buffer" : 0,
            "byteLength" : 12444,
            "byteOffset" : 1241592
        },
        {
            "buffer" : 0,
            "byteLength" : 2724,
            "byteOffset" : 1254036
        },
        {
            "buffer" : 0,
            "byteLength" : 9012,
            "byteOffset" : 1256760
        },
        {
            "buffer" : 0,
            "byteLength" : 9012,
            "byteOffset" : 1265772
        }
    ],
    "buffers" : [
        {
            "byteLength" : 1274784,
            "uri" : "data:application/octet-stream;base64,"
        }
    ]
}
